PathFileType	4	(X/Y/Z)	Kaydara																																																																																																																									
DataRate	CameraRate	NumFrames	NumMarkers	Units	OrigDataRate	OrigDataStartFrame	OrigNumFrames																																																																																																																					
30	30	5	41	mm	30	204	232																																																																																																																					
Frame#	Time	EMLA_LFHD			EMLA_RFHD			EMLA_LBHD			EMLA_RBHD			EMLA_LFTShould			EMLA_RFTShould			EMLA_LRRShould			EMLA_RRRShould			EMLA_T10			EMLA_STRN			EMLA_TRUN			EMLA_LSHO			EMLA_LUPA			EMLA_LELB			EMLA_LFRM			EMLA_LWRA			EMLA_LWRB			EMLA_LFIN			EMLA_RSHO			EMLA_RUPA			EMLA_RELB			EMLA_RFRM			EMLA_RWRA			EMLA_RWRB			EMLA_RFIN			EMLA_LFWT			EMLA_RFWT			EMLA_LBWT			EMLA_RBWT			EMLA_LTHI			EMLA_LKNE			EMLA_LSHN			EMLA_LANK			EMLA_LHEE			EMLA_LTOE			EMLA_RTHI			EMLA_RKNE			EMLA_RSHN			EMLA_RANK			EMLA_RHEE			EMLA_RTOE		
		X1	Y1	Z1	X2	Y2	Z2	X3	Y3	Z3	X4	Y4	Z4	X5	Y5	Z5	X6	Y6	Z6	X7	Y7	Z7	X8	Y8	Z8	X9	Y9	Z9	X10	Y10	Z10	X11	Y11	Z11	X12	Y12	Z12	X13	Y13	Z13	X14	Y14	Z14	X15	Y15	Z15	X16	Y16	Z16	X17	Y17	Z17	X18	Y18	Z18	X19	Y19	Z19	X20	Y20	Z20	X21	Y21	Z21	X22	Y22	Z22	X23	Y23	Z23	X24	Y24	Z24	X25	Y25	Z25	X26	Y26	Z26	X27	Y27	Z27	X28	Y28	Z28	X29	Y29	Z29	X30	Y30	Z30	X31	Y31	Z31	X32	Y32	Z32	X33	Y33	Z33	X34	Y34	Z34	X35	Y35	Z35	X36	Y36	Z36	X37	Y37	Z37	X38	Y38	Z38	X39	Y39	Z39	X40	Y40	Z40	X41	Y41	Z41
																																																																																																																												
204	6.777	191.6811	1570.84778	951.99974	21.5655	1571.74042	956.16661	201.37758	1543.96133	803.8916	6.61811	1547.57538	805.81993	190.94128	1332.2084	917.86797	41.95005	1321.81976	911.75636	182.31743	1389.36646	773.02231	28.87224	1377.341	766.82281	122.44363	1215.905	710.49927	114.73181	1259.29855	949.7554	108.14234	1155.75523	964.1188	313.06065	1360.91904	865.71785	381.58001	1203.18588	788.13446	412.56878	1078.37265	731.56372	439.88613	964.8172	672.96684	407.77363	780.72365	667.53998	457.21359	814.22913	605.08728	466.72684	752.82799	635.10792	-72.51024	1367.45438	838.14285	-141.63717	1200.8815	912.79015	-175.69113	1072.62856	972.10587	-156.86551	993.61359	1046.6008	-33.17517	978.93562	1207.78084	-86.11327	909.68384	1195.50316	-79.62385	937.39861	1254.28978	188.56834	917.71118	939.11621	-31.37742	918.58368	864.1507	233.47717	921.20674	742.46178	64.76587	945.43159	699.32838	257.96381	632.60345	880.77644	251.40465	484.34975	1030.97931	226.30236	335.12672	1128.71155	232.45514	146.4062	1157.87308	168.23679	45.57415	1143.09227	196.48779	128.7289	1321.70685	37.61094	700.16655	635.06596	-3.26483	486.52428	626.88763	58.17452	268.66936	582.93072	47.84179	136.84679	456.3443	114.11818	104.84346	399.98295	57.38467	42.29348	579.58458
205	6.81	196.54856	1559.3924	1013.27126	26.60702	1558.78815	1019.4722	204.50541	1529.94308	865.67657	9.95908	1531.85623	869.81522	194.27103	1318.20648	983.37624	44.21147	1307.34634	977.0182	185.60701	1374.54849	838.00941	32.58669	1364.43344	831.5506	124.60584	1201.57486	775.57846	116.59014	1245.62927	1015.49583	109.39979	1142.2477	1030.66696	316.97016	1345.20767	929.0004	382.40486	1188.86192	846.22009	411.59302	1065.29884	787.967	440.43331	958.13568	724.1526	411.4082	773.85292	703.78365	463.57269	814.90402	647.68433	470.26917	749.29375	668.32443	-68.60991	1355.19058	903.35304	-139.52353	1189.27551	976.81015	-175.51785	1063.63586	1037.69485	-156.28435	987.82394	1116.36795	-32.9982	983.97079	1278.45901	-85.13987	913.39951	1270.30296	-80.06964	945.54901	1327.16888	186.63774	905.16479	1005.09506	-31.94839	905.67795	927.15469	236.66027	909.78203	809.05502	68.93734	934.07837	764.67117	259.97553	624.28864	955.31494	251.65882	478.45364	1107.51022	225.40379	327.26418	1204.09241	231.96133	138.9876	1232.79434	168.41068	37.12098	1215.48218	191.52056	118.7977	1395.73761	38.29732	694.70047	694.15871	-8.00012	482.78152	673.48671	53.73839	268.85986	610.59883	43.52126	149.79532	471.25103	109.08983	125.20073	411.6954	57.25397	41.8485	581.86409
206	6.843	203.62507	1554.92706	1075.64018	33.85394	1552.76413	1084.69543	209.41948	1521.91895	928.7368	14.68459	1522.06528	936.14883	200.56669	1309.9118	1052.07939	50.19621	1302.57309	1047.1769	190.5621	1366.63422	906.45805	37.52788	1358.15369	900.69122	126.74118	1194.07463	845.28656	122.43175	1239.56299	1085.45471	114.05222	1135.94734	1100.0116	322.37469	1335.99945	996.5358	383.5009	1180.17563	910.52696	411.21265	1057.50961	850.96558	439.52137	951.9635	785.77072	412.61024	767.59499	759.14703	464.36672	813.64304	706.71371	471.07811	746.39328	721.07925	-63.96681	1350.15549	973.03986	-137.23927	1180.64911	1039.0448	-175.76612	1052.36717	1092.86369	-155.53244	977.85194	1173.58406	-37.48493	982.99416	1339.29825	-83.38326	908.76526	1330.88745	-85.06466	943.63197	1387.20413	190.82695	900.18669	1075.19798	-29.62168	895.32593	1002.38434	237.90628	905.48676	878.25203	67.79209	925.7476	837.65404	266.32078	625.3083	1031.59317	256.53763	476.23535	1180.25261	227.45504	313.12197	1265.29099	224.08968	121.506	1270.29091	159.05655	35.23822	1243.84277	187.44654	76.97195	1435.87234	38.84317	689.21646	765.20309	-15.6627	479.6674	736.90369	46.23829	271.86361	651.82678	34.26056	169.69267	499.59686	98.81892	155.30693	437.95933	55.96808	40.34222	588.11424
207	6.877	212.58646	1559.83017	1137.90108	43.13531	1556.65451	1151.54472	214.77861	1521.64444	992.18613	20.44521	1520.55588	1004.66766	207.34858	1309.89029	1122.02766	56.92163	1305.21851	1121.15967	196.45594	1368.46024	977.74223	42.30847	1361.44669	974.30923	130.17895	1194.81308	917.61299	129.87523	1240.75951	1157.69295	120.93193	1137.258	1172.25182	328.77712	1333.59177	1064.85451	387.42802	1174.35516	980.82649	412.38724	1051.95946	921.59485	438.98438	945.67856	857.73392	412.23625	761.40015	834.76967	461.68667	807.27859	780.43709	468.78609	740.24559	793.76129	-60.18513	1351.83151	1048.25172	-135.06	1176.51726	1100.42114	-174.89458	1042.70264	1141.42563	-154.77757	966.51688	1220.32066	-44.59696	973.43414	1390.59143	-84.8378	896.23238	1378.41843	-91.79026	929.28093	1434.7908	199.39451	908.80791	1142.92801	-24.31195	889.00604	1080.74242	233.46409	914.13887	941.93863	59.7206	922.08138	910.9024	266.39536	635.25158	1097.63031	262.75249	491.40369	1255.53146	228.24232	317.36738	1322.69363	228.63245	129.0048	1299.88632	163.59285	42.63969	1252.9438	188.9588	52.19925	1450.01892	35.42931	679.2485	847.45071	-25.54765	468.96122	826.16631	37.49228	271.8556	714.78325	25.93825	190.6785	549.94682	91.93435	189.35499	492.78427	54.67501	35.53	597.93953
208	6.91	221.55136	1566.22589	1199.18701	52.74188	1563.24051	1219.17603	218.77745	1524.48822	1054.69543	25.17029	1523.34396	1074.02084	212.86623	1313.21915	1189.48853	62.88992	1310.51422	1191.91422	197.55646	1372.00089	1043.80882	43.25092	1367.94342	1046.1676	125.43748	1202.44339	987.29752	136.28456	1246.88217	1227.30728	127.6545	1143.97789	1245.06699	332.23553	1338.0307	1129.19167	390.0058	1176.77979	1053.63426	413.95218	1050.11147	997.13684	438.52806	939.76913	937.49741	407.64061	754.47754	927.20963	456.9556	795.8371	868.1266	463.45261	729.81033	886.52657	-56.39857	1359.1568	1125.35568	-132.89866	1178.48473	1160.79056	-172.73907	1040.08377	1183.75488	-153.92542	957.65724	1257.15416	-52.56192	953.80417	1432.18918	-88.35932	875.87204	1412.02789	-100.07154	904.21097	1470.05249	206.88307	919.50005	1209.1626	-18.0956	888.26645	1154.54079	228.70338	923.58589	1005.42618	53.85223	923.09174	980.85159	278.62986	643.71658	1157.87186	275.07874	492.50092	1304.73633	235.78941	311.62327	1360.3186	228.46363	123.52439	1317.58713	161.92951	46.82704	1258.88512	186.93409	42.13884	1457.73102	31.13661	658.22693	936.65352	-36.9752	451.06529	932.69783	26.92242	270.89191	800.38956	25.34834	217.72762	623.64662	94.93584	232.99286	579.10957	51.00162	50.63023	623.9843
